<?xml version="1.0" encoding="UTF-8" standalone="no"?>
<!DOCTYPE svg PUBLIC "-//W3C//DTD SVG 1.1//EN" "http://www.w3.org/Graphics/SVG/1.1/DTD/svg11.dtd">
<svg width="100%" height="100%" viewBox="0 0 1536 1536" version="1.1" xmlns="http://www.w3.org/2000/svg" xmlns:xlink="http://www.w3.org/1999/xlink" xml:space="preserve" xmlns:serif="http://www.serif.com/" style="fill-rule:evenodd;clip-rule:evenodd;stroke-linejoin:round;stroke-miterlimit:2;">
    <g transform="matrix(1.60129,0,0,1.60129,-51.8584,77.9855)">
        <path d="M512,69.536C360.995,69.536 298.976,160.023 274.609,250.38C262.043,296.978 260.355,343.577 261.321,375.668C246.778,386.001 235.516,404.157 232.152,429.399C226.914,468.702 241.418,530.115 261.396,560.563C271.05,575.276 280.182,584.602 288.03,590.607C293.087,610.89 301.922,641.695 313.096,661.796C325.709,684.483 354.916,717.354 391.701,745.157C433.382,776.661 454.511,790.81 510.919,792.275L512,792.303L513.081,792.275C569.489,790.81 590.618,776.661 632.299,745.157C669.084,717.354 698.291,684.483 710.904,661.796C722.078,641.695 730.913,610.89 735.97,590.607C743.818,584.602 752.95,575.276 762.604,560.563C782.582,530.115 797.086,468.702 791.848,429.399C788.484,404.157 777.222,386.001 762.679,375.668C763.645,343.577 761.957,296.978 749.391,250.38C725.024,160.023 663.005,69.536 512,69.536Z" style="fill:rgb(131,212,144);"/>
    </g>
    <g transform="matrix(1.60129,0,0,1.60129,-51.8584,77.9855)">
        <path d="M512,587.373C512,587.373 502.291,579.421 494.048,579.194C485.805,578.967 435.944,603.732 435.944,603.732C435.944,603.732 458.265,651.171 512,651.171C565.735,651.171 588.056,603.732 588.056,603.732C588.056,603.732 538.195,578.967 529.952,579.194C522.224,579.407 513.208,586.41 512.111,587.284L512,587.373ZM364.812,410.598C364.812,410.598 378.642,383.119 413.393,386.554C448.145,389.989 464.812,426.627 464.812,426.627C464.812,426.627 441.794,451.852 408.074,445.776C375.13,439.84 364.812,410.598 364.812,410.598ZM659.188,410.598C659.188,410.598 645.358,383.119 610.607,386.554C575.855,389.989 559.188,426.627 559.188,426.627C559.188,426.627 582.206,451.852 615.926,445.776C648.87,439.84 659.188,410.598 659.188,410.598ZM512,750.656C466.78,749.481 450.218,737.199 416.804,711.944C385.537,688.311 360.205,660.851 349.485,641.567C334.052,613.806 324.218,562.249 324.218,562.249C324.218,562.249 312.936,563.223 296.205,537.723C273.838,503.634 260.5,419.959 288.008,408.139C298.826,403.491 305.687,411.27 305.687,411.27C305.687,411.27 261.234,111.17 512,111.17C762.766,111.17 718.313,411.27 718.313,411.27C718.313,411.27 725.174,403.491 735.992,408.139C763.5,419.959 750.162,503.634 727.795,537.723C711.064,563.223 699.782,562.249 699.782,562.249C699.782,562.249 689.948,613.806 674.515,641.567C663.795,660.851 638.463,688.311 607.196,711.944C573.782,737.199 557.22,749.481 512,750.656Z" style="fill:url(#_Linear1);"/>
        <clipPath id="_clip2">
            <path d="M512,587.373C512,587.373 502.291,579.421 494.048,579.194C485.805,578.967 435.944,603.732 435.944,603.732C435.944,603.732 458.265,651.171 512,651.171C565.735,651.171 588.056,603.732 588.056,603.732C588.056,603.732 538.195,578.967 529.952,579.194C522.224,579.407 513.208,586.41 512.111,587.284L512,587.373ZM364.812,410.598C364.812,410.598 378.642,383.119 413.393,386.554C448.145,389.989 464.812,426.627 464.812,426.627C464.812,426.627 441.794,451.852 408.074,445.776C375.13,439.84 364.812,410.598 364.812,410.598ZM659.188,410.598C659.188,410.598 645.358,383.119 610.607,386.554C575.855,389.989 559.188,426.627 559.188,426.627C559.188,426.627 582.206,451.852 615.926,445.776C648.87,439.84 659.188,410.598 659.188,410.598ZM512,750.656C466.78,749.481 450.218,737.199 416.804,711.944C385.537,688.311 360.205,660.851 349.485,641.567C334.052,613.806 324.218,562.249 324.218,562.249C324.218,562.249 312.936,563.223 296.205,537.723C273.838,503.634 260.5,419.959 288.008,408.139C298.826,403.491 305.687,411.27 305.687,411.27C305.687,411.27 261.234,111.17 512,111.17C762.766,111.17 718.313,411.27 718.313,411.27C718.313,411.27 725.174,403.491 735.992,408.139C763.5,419.959 750.162,503.634 727.795,537.723C711.064,563.223 699.782,562.249 699.782,562.249C699.782,562.249 689.948,613.806 674.515,641.567C663.795,660.851 638.463,688.311 607.196,711.944C573.782,737.199 557.22,749.481 512,750.656Z"/>
        </clipPath>
        <g clip-path="url(#_clip2)">
            <g transform="matrix(-1.58797,0,0,2.5506,1290.38,-648.15)">
                <path d="M381.567,413.572C381.567,413.572 394.555,398.284 422.47,400.067C449.199,401.774 460.456,421.381 460.456,421.381C460.456,421.381 445.099,433.852 417.203,431.363C389.192,428.862 381.567,413.572 381.567,413.572Z" style="fill:white;"/>
            </g>
            <g transform="matrix(1.58797,0,0,2.5506,-266.38,-648.15)">
                <path d="M381.567,413.572C381.567,413.572 394.555,398.284 422.47,400.067C449.199,401.774 460.456,421.381 460.456,421.381C460.456,421.381 445.099,433.852 417.203,431.363C389.192,428.862 381.567,413.572 381.567,413.572Z" style="fill:rgb(42,42,42);"/>
            </g>
        </g>
    </g>
    <defs>
        <linearGradient id="_Linear1" x1="0" y1="0" x2="1" y2="0" gradientUnits="userSpaceOnUse" gradientTransform="matrix(478.864,0,0,639.486,272.568,430.913)"><stop offset="0" style="stop-color:white;stop-opacity:1"/><stop offset="0.24" style="stop-color:white;stop-opacity:1"/><stop offset="0.5" style="stop-color:white;stop-opacity:1"/><stop offset="0.5" style="stop-color:rgb(42,42,42);stop-opacity:1"/><stop offset="1" style="stop-color:rgb(42,42,42);stop-opacity:1"/></linearGradient>
    </defs>
</svg>
